<?xml version="1.0" standalone="no"?>
<!DOCTYPE svg PUBLIC "-//W3C//DTD SVG 20010904//EN"
 "http://www.w3.org/TR/2001/REC-SVG-20010904/DTD/svg10.dtd">
<svg version="1.0" xmlns="http://www.w3.org/2000/svg"
 width="500.000000pt" height="500.000000pt" viewBox="0 0 500.000000 500.000000"
 preserveAspectRatio="xMidYMid meet">

<g transform="translate(0.000000,500.000000) scale(0.100000,-0.100000)"
fill="#000000" stroke="none">
<path d="M2493 3903 c9 -2 25 -2 35 0 9 3 1 5 -18 5 -19 0 -27 -2 -17 -5z"/>
<path d="M2425 3890 c-13 -5 -14 -9 -5 -9 8 0 24 4 35 9 13 5 14 9 5 9 -8 0
-24 -4 -35 -9z"/>
<path d="M2585 3889 c22 -4 54 -8 70 -7 22 0 19 3 -15 9 -60 10 -108 9 -55 -2z"/>
<path d="M2333 3862 c-29 -10 -58 -24 -65 -32 -11 -12 -11 -12 2 -3 8 6 29 13
45 15 17 2 32 5 35 8 3 3 16 11 30 17 35 16 14 14 -47 -5z"/>
<path d="M2713 3873 c9 -2 17 -9 17 -15 0 -6 10 -8 25 -4 35 9 116 -12 145
-37 23 -20 23 -19 -2 7 -20 22 -42 32 -95 42 -65 13 -132 18 -90 7z"/>
<path d="M2433 3853 c9 -2 25 -2 35 0 9 3 1 5 -18 5 -19 0 -27 -2 -17 -5z"/>
<path d="M2608 3853 c12 -2 30 -2 40 0 9 3 -1 5 -23 4 -22 0 -30 -2 -17 -4z"/>
<path d="M2380 3826 c0 -2 7 -7 16 -10 8 -3 12 -2 9 4 -6 10 -25 14 -25 6z"/>
<path d="M2842 3810 c0 -14 2 -19 5 -12 2 6 2 18 0 25 -3 6 -5 1 -5 -13z"/>
<path d="M2480 3775 c36 -19 70 -34 75 -34 6 0 -19 15 -55 34 -36 19 -69 34
-75 34 -5 0 19 -15 55 -34z"/>
<path d="M2985 3750 c10 -11 20 -20 23 -20 3 0 -3 9 -13 20 -10 11 -20 20 -23
20 -3 0 3 -9 13 -20z"/>
<path d="M1880 3715 c-7 -9 -8 -15 -2 -15 5 0 12 7 16 15 3 8 4 15 2 15 -2 0
-9 -7 -16 -15z"/>
<path d="M3030 3716 c0 -2 8 -10 18 -17 15 -13 16 -12 3 4 -13 16 -21 21 -21
13z"/>
<path d="M3090 3665 c13 -14 26 -25 28 -25 3 0 -5 11 -18 25 -13 14 -26 25
-28 25 -3 0 5 -11 18 -25z"/>
<path d="M3130 3636 c0 -2 8 -10 18 -17 15 -13 16 -12 3 4 -13 16 -21 21 -21
13z"/>
<path d="M2795 3619 c3 -4 -1 -10 -7 -12 -9 -4 -7 -6 3 -6 9 -1 29 -11 45 -23
28 -21 28 -21 11 -1 -18 21 -18 21 4 25 18 2 14 6 -18 14 -24 6 -40 8 -38 3z"/>
<path d="M3185 3590 c10 -11 20 -20 23 -20 3 0 -3 9 -13 20 -10 11 -20 20 -23
20 -3 0 3 -9 13 -20z"/>
<path d="M2888 3593 c6 -2 18 -2 25 0 6 3 1 5 -13 5 -14 0 -19 -2 -12 -5z"/>
<path d="M1840 3565 c-7 -8 -8 -15 -2 -15 5 0 15 7 22 15 7 8 8 15 2 15 -5 0
-15 -7 -22 -15z"/>
<path d="M2988 3573 c7 -3 16 -2 19 1 4 3 -2 6 -13 5 -11 0 -14 -3 -6 -6z"/>
<path d="M3220 3566 c0 -2 8 -10 18 -17 15 -13 16 -12 3 4 -13 16 -21 21 -21
13z"/>
<path d="M3118 3543 c6 -2 18 -2 25 0 6 3 1 5 -13 5 -14 0 -19 -2 -12 -5z"/>
<path d="M1794 3518 l-19 -23 23 19 c21 18 27 26 19 26 -2 0 -12 -10 -23 -22z"/>
<path d="M3168 3533 c7 -3 16 -2 19 1 4 3 -2 6 -13 5 -11 0 -14 -3 -6 -6z"/>
<path d="M3272 3508 c15 -26 38 -52 38 -43 0 14 -31 65 -40 65 -6 0 -5 -9 2
-22z"/>
<path d="M2880 3516 c0 -2 8 -10 18 -17 15 -13 16 -12 3 4 -13 16 -21 21 -21
13z"/>
<path d="M2241 3484 c0 -11 3 -14 6 -6 3 7 2 16 -1 19 -3 4 -6 -2 -5 -13z"/>
<path d="M2298 3463 c7 -3 16 -2 19 1 4 3 -2 6 -13 5 -11 0 -14 -3 -6 -6z"/>
<path d="M2214 3445 c8 -9 19 -14 23 -13 4 1 19 -3 33 -10 21 -11 20 -10 -4
10 -16 12 -38 24 -49 25 -17 3 -17 2 -3 -12z"/>
<path d="M2930 3446 c0 -2 8 -10 18 -17 15 -13 16 -12 3 4 -13 16 -21 21 -21
13z"/>
<path d="M2189 3413 c-13 -16 -12 -17 4 -4 9 7 17 15 17 17 0 8 -8 3 -21 -13z"/>
<path d="M2119 3363 c-13 -16 -12 -17 4 -4 9 7 17 15 17 17 0 8 -8 3 -21 -13z"/>
<path d="M1565 3303 l-28 -38 34 32 c18 18 30 35 27 38 -3 3 -18 -11 -33 -32z"/>
<path d="M2480 3287 c0 -4 20 -18 103 -71 15 -10 27 -16 27 -13 0 4 -20 18
-102 71 -16 10 -28 16 -28 13z"/>
<path d="M1615 3180 c27 -27 51 -50 54 -50 3 0 -17 23 -44 50 -27 28 -51 50
-54 50 -3 0 17 -22 44 -50z"/>
<path d="M1526 3198 c-9 -36 -7 -151 4 -168 7 -10 10 18 10 88 0 56 -2 102 -4
102 -2 0 -6 -10 -10 -22z"/>
<path d="M3120 3180 c12 -16 24 -30 26 -30 3 0 -4 14 -16 30 -12 17 -24 30
-26 30 -3 0 4 -13 16 -30z"/>
<path d="M2650 3169 c20 -19 36 -26 45 -21 10 5 1 13 -31 28 l-46 21 32 -28z"/>
<path d="M2878 3133 c6 -2 18 -2 25 0 6 3 1 5 -13 5 -14 0 -19 -2 -12 -5z"/>
<path d="M3176 3125 c-3 -8 -18 -16 -33 -16 l-28 -1 30 -8 c17 -4 39 -8 50 -9
18 0 18 1 3 10 -10 5 -15 16 -12 24 4 8 4 15 1 15 -3 0 -7 -7 -11 -15z"/>
<path d="M2943 3123 c9 -2 25 -2 35 0 9 3 1 5 -18 5 -19 0 -27 -2 -17 -5z"/>
<path d="M1708 3099 c12 -14 19 -29 15 -32 -3 -4 -1 -7 5 -7 7 0 12 10 12 22
0 12 -3 18 -7 15 -3 -4 -16 1 -27 10 -18 15 -18 14 2 -8z"/>
<path d="M3078 3113 c6 -2 18 -2 25 0 6 3 1 5 -13 5 -14 0 -19 -2 -12 -5z"/>
<path d="M3145 3064 c-9 -15 -12 -23 -6 -20 11 7 35 46 28 46 -3 0 -12 -12
-22 -26z"/>
<path d="M3230 3082 c8 -5 26 -13 40 -16 17 -5 20 -4 10 2 -8 5 -26 13 -40 16
-17 5 -20 4 -10 -2z"/>
<path d="M3181 3064 c0 -11 3 -14 6 -6 3 7 2 16 -1 19 -3 4 -6 -2 -5 -13z"/>
<path d="M3109 3013 c-13 -16 -12 -17 4 -4 16 13 21 21 13 21 -2 0 -10 -8 -17
-17z"/>
<path d="M1867 3009 c7 -7 15 -10 18 -7 3 3 -2 9 -12 12 -14 6 -15 5 -6 -5z"/>
<path d="M3420 3010 c8 -5 20 -10 25 -10 6 0 3 5 -5 10 -8 5 -19 10 -25 10 -5
0 -3 -5 5 -10z"/>
<path d="M3475 2975 c2 -37 15 -43 15 -7 0 18 -4 32 -8 32 -4 0 -7 -11 -7 -25z"/>
<path d="M3059 2943 c-13 -16 -12 -17 4 -4 16 13 21 21 13 21 -2 0 -10 -8 -17
-17z"/>
<path d="M2185 2853 c40 -21 40 -20 24 -40 -12 -16 -12 -17 1 -7 8 7 24 14 35
16 15 3 8 9 -29 26 -56 25 -75 29 -31 5z"/>
<path d="M2949 2793 c-13 -16 -12 -17 4 -4 9 7 17 15 17 17 0 8 -8 3 -21 -13z"/>
<path d="M2241 2784 c0 -11 3 -14 6 -6 3 7 2 16 -1 19 -3 4 -6 -2 -5 -13z"/>
<path d="M1524 2733 c3 -16 8 -46 12 -68 8 -46 42 -112 63 -120 7 -3 2 10 -13
30 -15 19 -25 39 -21 44 3 5 0 11 -6 13 -6 2 -13 32 -16 66 -3 34 -10 62 -15
62 -5 0 -7 -12 -4 -27z"/>
<path d="M2899 2723 c-13 -16 -12 -17 4 -4 9 7 17 15 17 17 0 8 -8 3 -21 -13z"/>
<path d="M2089 2713 c-13 -16 -12 -17 4 -4 16 13 21 21 13 21 -2 0 -10 -8 -17
-17z"/>
<path d="M2570 2710 c8 -5 20 -10 25 -10 6 0 3 5 -5 10 -8 5 -19 10 -25 10 -5
0 -3 -5 5 -10z"/>
<path d="M3251 2704 c0 -11 3 -14 6 -6 3 7 2 16 -1 19 -3 4 -6 -2 -5 -13z"/>
<path d="M2811 2674 c0 -11 3 -14 6 -6 3 7 2 16 -1 19 -3 4 -6 -2 -5 -13z"/>
<path d="M2831 2641 c-17 -13 -20 -20 -12 -26 7 -4 13 -5 14 -4 1 2 8 14 15
27 15 27 14 27 -17 3z"/>
<path d="M3261 2644 c0 -11 3 -14 6 -6 3 7 2 16 -1 19 -3 4 -6 -2 -5 -13z"/>
<path d="M1974 2618 l-19 -23 23 19 c21 18 27 26 19 26 -2 0 -12 -10 -23 -22z"/>
<path d="M2858 2613 c7 -3 16 -2 19 1 4 3 -2 6 -13 5 -11 0 -14 -3 -6 -6z"/>
<path d="M2910 2600 c14 -4 34 -8 45 -8 16 0 15 2 -5 8 -14 4 -34 8 -45 8 -16
0 -15 -2 5 -8z"/>
<path d="M2988 2583 c6 -2 18 -2 25 0 6 3 1 5 -13 5 -14 0 -19 -2 -12 -5z"/>
<path d="M1710 2570 c8 -5 20 -10 25 -10 6 0 3 5 -5 10 -8 5 -19 10 -25 10 -5
0 -3 -5 5 -10z"/>
<path d="M3050 2570 c34 -11 60 -11 35 0 -11 5 -29 8 -40 8 -16 0 -15 -2 5 -8z"/>
<path d="M3445 2559 c-4 -6 -5 -12 -2 -15 2 -3 7 2 10 11 7 17 1 20 -8 4z"/>
<path d="M3178 2543 c6 -2 18 -2 25 0 6 3 1 5 -13 5 -14 0 -19 -2 -12 -5z"/>
<path d="M3280 2540 c0 -5 -15 -7 -32 -5 -30 5 -26 1 11 -11 11 -4 10 -9 -5
-27 -16 -18 -16 -19 -1 -8 14 11 17 11 18 0 0 -8 4 -5 8 5 4 11 23 26 42 33
27 11 28 12 7 8 -16 -3 -28 -1 -28 5 0 5 -4 10 -10 10 -5 0 -10 -4 -10 -10z"/>
<path d="M3368 2543 c7 -3 16 -2 19 1 4 3 -2 6 -13 5 -11 0 -14 -3 -6 -6z"/>
<path d="M1840 2526 c0 -2 7 -6 15 -10 8 -3 15 -1 15 4 0 6 -7 10 -15 10 -8 0
-15 -2 -15 -4z"/>
<path d="M3399 2493 c-13 -16 -12 -17 4 -4 16 13 21 21 13 21 -2 0 -10 -8 -17
-17z"/>
<path d="M3369 2453 c-13 -16 -12 -17 4 -4 16 13 21 21 13 21 -2 0 -10 -8 -17
-17z"/>
<path d="M1680 2436 c0 -2 8 -10 18 -17 15 -13 16 -12 3 4 -13 16 -21 21 -21
13z"/>
<path d="M2842 2375 c0 -16 2 -22 5 -12 2 9 2 23 0 30 -3 6 -5 -1 -5 -18z"/>
<path d="M2210 2326 c0 -3 9 -10 20 -16 11 -6 20 -8 20 -6 0 3 -9 10 -20 16
-11 6 -20 8 -20 6z"/>
<path d="M2331 2304 c0 -11 3 -14 6 -6 3 7 2 16 -1 19 -3 4 -6 -2 -5 -13z"/>
<path d="M1725 2290 c10 -11 20 -20 23 -20 3 0 -3 9 -13 20 -10 11 -20 20 -23
20 -3 0 3 -9 13 -20z"/>
<path d="M2352 2266 c-12 -7 -25 -16 -27 -20 -3 -3 -2 -4 2 -1 3 3 11 1 17 -4
7 -6 15 -1 23 15 6 13 10 24 10 23 -1 -1 -12 -7 -25 -13z"/>
<path d="M1760 2266 c0 -2 8 -10 18 -17 15 -13 16 -12 3 4 -13 16 -21 21 -21
13z"/>
<path d="M2518 2223 c7 -3 16 -2 19 1 4 3 -2 6 -13 5 -11 0 -14 -3 -6 -6z"/>
<path d="M2360 2214 c0 -6 7 -19 16 -30 14 -18 14 -18 3 6 -14 31 -19 36 -19
24z"/>
<path d="M2588 2213 c6 -2 18 -2 25 0 6 3 1 5 -13 5 -14 0 -19 -2 -12 -5z"/>
<path d="M1870 2172 c0 -6 14 -20 30 -32 17 -12 30 -20 30 -18 0 2 -13 16 -30
31 -16 16 -30 24 -30 19z"/>
<path d="M2845 2170 c-3 -6 1 -7 9 -4 18 7 21 14 7 14 -6 0 -13 -4 -16 -10z"/>
<path d="M3110 2119 c-9 -16 -18 -19 -38 -15 -23 5 -24 5 -9 -5 10 -6 24 -8
32 -5 13 5 41 46 31 46 -3 0 -10 -9 -16 -21z"/>
<path d="M2417 1939 c14 -14 123 -26 123 -13 0 5 -19 9 -42 9 -24 0 -54 4 -68
9 -20 7 -23 6 -13 -5z"/>
<path d="M1430 1675 c0 -3 23 -39 50 -80 28 -42 53 -82 56 -90 5 -12 -61 -113
-139 -212 -7 -10 6 -13 59 -13 l69 0 45 70 c25 38 50 70 55 70 6 0 23 -21 39
-48 53 -86 62 -92 133 -92 l63 0 -28 39 c-15 21 -48 68 -74 104 -27 36 -48 70
-48 75 0 4 23 42 51 83 71 103 71 99 2 99 l-59 0 -35 -60 c-18 -33 -37 -60
-41 -60 -4 0 -23 27 -44 60 l-37 60 -58 0 c-33 0 -59 -2 -59 -5z"/>
<path d="M1900 1495 l0 -115 70 0 c56 0 70 3 70 15 0 11 -12 15 -50 15 l-50 0
0 34 c0 34 1 35 42 38 59 4 63 28 4 28 -46 0 -46 0 -46 35 l0 35 50 0 c38 0
50 4 50 15 0 12 -14 15 -70 15 l-70 0 0 -115z"/>
<path d="M2140 1494 c0 -105 2 -115 18 -112 14 3 17 15 17 75 0 39 3 74 6 78
4 3 28 -28 54 -69 77 -122 97 -115 93 35 -2 84 -6 104 -18 104 -12 0 -16 -16
-18 -72 -2 -40 -6 -73 -10 -73 -4 0 -29 34 -56 75 -32 50 -55 75 -67 75 -18 0
-19 -9 -19 -116z"/>
<path d="M2432 1498 c2 -64 7 -111 12 -108 5 3 10 23 10 45 1 35 4 40 26 43
14 1 36 6 50 9 20 6 15 8 -25 13 -53 5 -63 18 -51 66 6 21 12 24 56 24 28 0
50 5 50 10 0 6 -28 10 -65 10 l-66 0 3 -112z"/>
<path d="M2655 1578 c-3 -18 -5 -69 -3 -113 l3 -80 59 -3 c32 -2 64 2 69 7 8
8 -6 11 -46 11 l-57 0 0 105 c0 103 -13 139 -25 73z"/>
<path d="M2908 1581 c-30 -27 -33 -35 -33 -86 0 -51 3 -59 33 -86 25 -23 42
-29 76 -29 38 0 48 5 75 35 50 57 39 150 -20 181 -46 23 -94 18 -131 -15z
m129 -15 c38 -33 40 -102 4 -140 -48 -51 -138 -19 -142 49 -2 54 1 66 26 90
31 32 75 32 112 1z"/>
<path d="M3180 1595 c0 -8 12 -58 27 -110 35 -124 51 -127 84 -15 12 44 26 80
30 80 7 0 49 -127 49 -148 0 -14 28 -23 36 -11 14 23 61 210 53 214 -11 7 -14
0 -39 -92 -12 -46 -25 -83 -29 -83 -3 0 -17 39 -31 88 -16 56 -30 87 -39 87
-9 0 -23 -31 -39 -87 -14 -49 -28 -88 -31 -88 -4 0 -13 24 -20 53 -24 95 -34
127 -43 127 -4 0 -8 -7 -8 -15z"/>
</g>
</svg>
