<svg version="1.1" id="Layer_1" xmlns="http://www.w3.org/2000/svg" xmlns:xlink="http://www.w3.org/1999/xlink" x="0px" y="0px"
	 width="100%" viewBox="0 0 1024 1024" enable-background="new 0 0 1024 1024" xml:space="preserve">
<path fill="#000000" opacity="1.000000" stroke="none" 
	d="
M569.043701,619.170044 
	C551.865784,624.127075 535.030823,628.822754 518.329712,633.953735 
	C512.787781,635.656372 507.739105,633.722778 502.593597,633.027771 
	C482.653687,630.334473 462.777893,627.164673 442.884521,624.131042 
	C440.742249,623.804382 438.707001,623.089478 436.867584,621.834045 
	C423.799530,612.914978 410.588715,604.199341 397.661774,595.080872 
	C383.065002,584.784546 370.596252,571.933472 356.959869,560.480835 
	C350.932526,555.418823 346.847046,549.214844 343.347778,542.274963 
	C334.574554,524.875610 325.425140,507.666077 316.434723,490.376190 
	C312.329895,482.481995 312.867188,473.538635 310.777191,465.185333 
	C307.162750,450.738678 308.365784,436.146271 309.383301,421.518433 
	C310.410980,406.744019 310.925446,391.934082 311.685059,377.140747 
	C311.992371,371.155060 312.404633,365.174286 312.661469,359.186676 
	C312.747131,357.189484 313.780060,355.763153 314.894531,354.297974 
	C335.869690,326.721741 357.262756,299.448090 377.584564,271.398407 
	C384.817322,261.415222 393.392517,255.986053 405.060150,252.888672 
	C439.957092,243.624649 474.626282,233.502426 509.378662,223.694794 
	C511.814972,223.007248 514.158325,222.840408 516.733582,223.224152 
	C538.438843,226.458481 560.160950,229.583862 581.899719,232.583908 
	C584.663574,232.965332 587.018677,233.754730 589.174744,235.460526 
	C617.527161,257.892273 645.883850,280.318665 674.276367,302.699646 
	C676.367920,304.348328 677.395264,306.504608 678.294678,308.862183 
	C690.993774,342.148865 703.734741,375.419586 716.403320,408.717834 
	C718.874390,415.212646 717.191772,421.923431 716.816711,428.503510 
	C715.793884,446.447815 714.467102,464.374756 713.266602,482.308990 
	C712.922119,487.454468 712.577332,492.600067 712.273499,497.748047 
	C712.137085,500.059784 710.839966,501.795685 709.534546,503.519135 
	C686.200500,534.324707 662.840088,565.110352 639.539246,595.940918 
	C637.619995,598.480347 635.231506,599.858521 632.220215,600.728699 
	C611.274658,606.781433 590.362061,612.948242 569.043701,619.170044 
M478.782227,537.902466 
	C480.555634,544.844849 480.690094,552.180847 483.568420,559.698853 
	C514.495544,536.106567 544.842896,512.956482 576.220337,489.020630 
	C537.888855,475.524200 500.670807,462.419800 462.629852,449.025665 
	C463.463531,454.207153 464.063782,458.435150 464.832306,462.632324 
	C469.376923,487.452148 473.960663,512.264771 478.782227,537.902466 
M407.367462,417.089966 
	C423.553497,425.135956 439.739532,433.181946 456.314453,441.421265 
	C456.314453,402.094879 456.314453,363.573120 456.314453,324.332794 
	C424.138458,347.737823 392.756073,370.565582 360.421722,394.085846 
	C376.604645,402.017456 391.650238,409.391632 407.367462,417.089966 
M484.433990,451.940491 
	C515.228210,462.759308 546.022461,473.578125 577.235107,484.543976 
	C567.878784,450.440430 558.753235,417.178009 549.422241,383.166840 
	C520.656250,403.929749 492.788361,424.044464 464.008240,444.817596 
	C471.255310,447.348419 477.473969,449.520142 484.433990,451.940491 
M497.027863,415.505463 
	C513.443054,403.641602 529.858215,391.777740 546.981995,379.401733 
	C518.339966,360.614441 490.338989,342.247681 461.787354,323.519684 
	C461.787354,363.005890 461.787354,401.468872 461.787354,440.894745 
	C473.835358,432.204254 485.133759,424.054474 497.027863,415.505463 
M588.392273,385.306854 
	C577.225281,384.553955 566.151306,382.375549 553.954224,382.453339 
	C563.192566,416.169403 572.195068,449.024689 581.555603,483.186737 
	C604.183228,452.080200 625.894531,422.233246 648.092041,391.717896 
	C627.606262,389.490692 608.458313,387.408936 588.392273,385.306854 
M661.880005,452.382385 
	C658.390015,433.864563 654.900085,415.346741 651.410095,396.828949 
	C650.980469,396.767151 650.550903,396.705383 650.121277,396.643616 
	C628.505676,426.412842 606.890137,456.182037 585.329346,485.875702 
	C586.288757,486.736267 586.503601,487.095581 586.783386,487.156250 
	C613.593750,492.974152 640.406189,498.783051 667.227600,504.549744 
	C670.820923,505.322327 672.017944,504.048950 671.238647,500.219696 
	C668.055725,484.579773 665.113037,468.891022 661.880005,452.382385 
M447.033234,542.398499 
	C457.229218,548.102295 467.169342,554.286255 478.171051,559.587585 
	C471.314667,522.695435 464.593018,486.528229 457.699524,449.436310 
	C433.642822,469.219360 410.367279,488.360046 386.204041,508.230743 
	C407.029785,519.921265 426.716064,530.972107 447.033234,542.398499 
M411.950012,424.618164 
	C394.621948,416.062958 377.293915,407.507751 358.871338,398.412170 
	C367.239655,434.292389 375.289734,468.808289 383.574829,504.331635 
	C407.817963,484.472351 431.127655,465.377716 455.090118,445.748383 
	C440.357208,438.540527 426.484497,431.753510 411.950012,424.618164 
M574.243652,292.253204 
	C574.719971,287.808624 571.839722,289.898224 570.212341,290.353699 
	C544.609436,297.519806 519.028625,304.764984 493.442871,311.992310 
	C484.384888,314.550903 475.327179,317.110321 464.840515,320.073059 
	C493.647614,338.991486 521.281860,357.139648 549.379211,375.591980 
	C557.778870,347.376282 565.882141,320.156250 574.243652,292.253204 
M646.571289,385.790070 
	C646.194824,385.056000 645.901245,384.263306 645.429749,383.596436 
	C628.133179,359.133789 610.879822,334.640228 593.467712,310.259949 
	C589.074890,304.109100 585.242493,297.502869 579.333923,291.084930 
	C570.652588,320.218414 562.248413,348.421753 553.693726,377.130157 
	C558.554138,377.732422 562.309265,378.268860 566.079834,378.652924 
	C585.085999,380.588928 604.081848,382.649200 623.111938,384.315796 
	C630.859680,384.994263 638.530762,386.650757 646.571289,385.790070 
M516.668640,540.198608 
	C507.213074,547.433044 497.757477,554.667480 487.635773,562.411560 
	C490.173492,562.971619 491.751434,563.422729 493.360901,563.659851 
	C521.316406,567.777649 549.279968,571.840881 577.231262,575.986877 
	C583.860291,576.970154 584.044312,577.077576 583.656494,570.217163 
	C582.370117,547.461426 580.987183,524.710388 579.458191,501.969879 
	C579.279236,499.308411 579.397522,496.394012 577.786926,493.439117 
	C557.393188,509.033295 537.307434,524.391907 516.668640,540.198608 
M472.782257,265.057495 
	C469.359222,281.737000 465.936218,298.416534 462.346558,315.908020 
	C499.205078,305.524231 534.953735,295.453094 570.702332,285.381958 
	C570.702759,284.943024 570.703186,284.504120 570.703674,284.065186 
	C540.155151,269.151184 509.606720,254.237183 478.311493,238.958618 
	C476.409882,248.058105 474.718567,256.151276 472.782257,265.057495 
M376.454651,320.828644 
	C370.896515,343.133911 365.338379,365.439148 359.464996,389.009552 
	C391.591095,365.679535 422.550812,343.196533 454.402161,320.066040 
	C429.813721,311.872955 406.544922,304.119598 382.736023,296.186249 
	C380.587128,304.653473 378.635315,312.344299 376.454651,320.828644 
M584.477173,514.065674 
	C585.893860,534.049194 587.310547,554.032715 588.809021,575.170166 
	C616.111267,553.142578 642.567688,531.797485 669.930542,509.721039 
	C640.369019,503.426361 612.199524,497.428101 583.317139,491.278046 
	C583.717651,499.266174 584.065247,506.199219 584.477173,514.065674 
M656.600403,365.248779 
	C661.319641,347.742523 665.924194,330.203888 670.846619,312.754913 
	C671.945557,308.859253 670.620972,307.772430 667.176758,307.033722 
	C649.294983,303.198669 631.448608,299.198425 613.585754,295.274902 
	C604.243469,293.222839 594.892517,291.210175 585.545471,289.179718 
	C585.328430,289.532379 585.111389,289.885040 584.894409,290.237701 
	C606.790588,321.244812 628.686829,352.251953 651.392151,384.404846 
	C653.338196,377.211975 654.850769,371.621155 656.600403,365.248779 
M390.349792,552.308228 
	C391.657654,561.849121 393.239594,571.363892 394.154480,580.942322 
	C394.593292,585.536316 396.199951,586.100464 400.215179,584.932739 
	C418.728821,579.548462 437.302673,574.371399 455.856873,569.126831 
	C461.834198,567.437195 467.817413,565.768372 473.797974,564.090088 
	C473.838409,563.659546 473.878845,563.229004 473.919312,562.798462 
	C444.730804,546.379761 415.542328,529.961121 384.904388,512.727173 
	C386.848541,526.638550 388.579865,539.027161 390.349792,552.308228 
M445.852905,256.404358 
	C426.519104,268.222260 407.185303,280.040161 387.463806,292.095032 
	C388.694733,293.012573 389.042206,293.429077 389.479980,293.575287 
	C410.936798,300.742950 432.412750,307.853516 453.855377,315.063293 
	C458.093231,316.488220 458.170685,313.510010 458.709351,310.906006 
	C462.344971,293.330444 466.076599,275.773438 469.525085,258.161102 
	C470.625732,252.539825 472.662811,247.023804 472.440521,240.030640 
	C463.325470,245.657867 454.906006,250.855667 445.852905,256.404358 
M670.871399,398.760101 
	C665.972046,397.017792 661.072693,395.275482 655.378723,393.250610 
	C662.226929,429.136719 668.872681,463.962067 675.518494,498.787445 
	C675.862427,498.818268 676.206421,498.849091 676.550354,498.879913 
	C688.461304,470.808868 700.372314,442.737793 712.389893,414.415527 
	C698.326477,409.114075 684.962524,404.076324 670.871399,398.760101 
M472.505737,569.242615 
	C449.134338,575.846985 425.762970,582.451355 402.391571,589.055725 
	C402.409241,589.466736 402.426910,589.877808 402.444580,590.288818 
	C437.903564,602.909729 473.362549,615.530701 509.633148,628.440491 
	C508.704163,626.193176 508.167664,624.686035 507.475891,623.253845 
	C499.445374,606.628357 491.403595,590.008179 483.337616,573.399902 
	C480.243896,567.029846 480.212219,567.045227 472.505737,569.242615 
M364.934814,445.354401 
	C361.789673,431.617767 358.644531,417.881134 355.246460,403.039825 
	C354.197144,404.893066 353.811829,405.441071 353.556335,406.044067 
	C342.973785,431.021942 332.471954,456.034485 321.763062,480.958008 
	C319.956238,485.163116 322.512024,485.783661 325.307312,486.742859 
	C339.941864,491.764618 354.556885,496.843719 369.211304,501.806732 
	C372.068817,502.774475 374.766998,504.580383 378.779572,504.267029 
	C374.169800,484.595367 369.666260,465.376831 364.934814,445.354401 
M494.438843,586.148865 
	C501.327728,600.239258 508.216614,614.329651 515.344788,628.909363 
	C537.247437,612.893188 558.446716,597.391418 580.687134,581.128357 
	C548.342224,576.360046 517.387390,571.796692 485.347931,567.073486 
	C488.595398,573.853333 491.373688,579.653625 494.438843,586.148865 
M670.899048,330.193146 
	C666.090393,347.821594 661.362976,365.472900 656.412048,383.061310 
	C655.273254,387.106842 656.325928,388.958282 660.316711,390.353516 
	C673.025818,394.796722 685.565613,399.722351 698.247620,404.246155 
	C702.336304,405.704620 706.219666,408.022858 711.255920,408.371948 
	C699.298950,377.046509 687.545044,346.253174 675.791199,315.459869 
	C675.446289,315.499329 675.101440,315.538788 674.756531,315.578247 
	C673.552368,320.190613 672.348206,324.802979 670.899048,330.193146 
M494.669647,241.721878 
	C521.688232,254.968567 548.706848,268.215271 576.196655,281.692963 
	C576.819214,279.506561 577.396423,278.135406 577.585022,276.712738 
	C579.004089,266.009888 580.391052,255.302292 581.696838,244.585083 
	C582.514954,237.870865 582.444153,237.896057 575.536072,237.905792 
	C553.391174,237.936996 531.246216,237.941940 509.101318,237.954651 
	C502.100220,237.958664 495.099152,237.955261 488.098053,237.955261 
	C488.088074,238.238693 488.078094,238.522125 488.068115,238.805557 
	C490.039124,239.682983 492.010101,240.560410 494.669647,241.721878 
M336.520844,340.023102 
	C331.630463,344.771698 326.772888,349.554749 321.836334,354.254822 
	C319.252777,356.714569 319.125244,358.659546 322.072510,361.137573 
	C328.178864,366.271698 334.006866,371.736450 339.962677,377.050262 
	C344.510742,381.108185 349.079407,385.143005 354.393768,389.857819 
	C361.912170,359.867340 369.207947,330.764801 376.503723,301.662231 
	C375.974701,301.306427 375.445679,300.950623 374.916656,300.594788 
	C362.287628,313.574066 349.658569,326.553375 336.520844,340.023102 
M344.856598,414.458038 
	C345.450653,413.084137 346.107666,411.733551 346.627533,410.332092 
	C348.525543,405.215149 352.929047,400.182617 351.983093,395.106598 
	C351.108276,390.412231 345.044708,387.889465 341.309692,384.381287 
	C333.850311,377.374939 326.046967,370.734802 317.454712,363.118134 
	C318.078766,400.650818 318.679749,436.794678 319.280701,472.938507 
	C319.576691,472.975433 319.872650,473.012360 320.168610,473.049286 
	C328.316315,453.760620 336.464020,434.471924 344.856598,414.458038 
M629.711609,592.601013 
	C634.040588,594.988586 635.480347,592.184937 636.960632,588.816711 
	C645.586731,569.188538 654.325745,549.610107 663.002441,530.004150 
	C664.818665,525.900085 666.533081,521.750916 668.705627,516.658813 
	C642.677185,537.619629 617.565430,557.842346 591.527100,578.811218 
	C604.989685,583.671509 616.990295,588.004028 629.711609,592.601013 
M586.244263,246.703262 
	C584.876770,256.733307 583.473389,266.758606 582.154419,276.795013 
	C581.271240,283.515656 581.331116,283.493408 588.113281,284.954285 
	C597.693970,287.018005 607.260376,289.147980 616.839783,291.217651 
	C632.641968,294.631805 648.449707,298.020386 665.656128,301.721100 
	C639.063721,280.627014 613.647583,260.465973 588.277222,240.341309 
	C586.323914,242.530396 586.402100,244.229996 586.244263,246.703262 
M373.522034,558.998901 
	C378.677521,566.160156 383.833008,573.321411 389.635986,581.382080 
	C386.536041,558.340576 383.534210,536.492065 380.723602,514.619019 
	C380.319519,511.474457 378.890991,509.971191 376.052521,509.002594 
	C360.481995,503.689453 344.953278,498.253876 329.399719,492.890778 
	C327.977753,492.400482 326.543427,491.580688 324.353912,492.153992 
	C340.809692,514.525574 356.953857,536.473511 373.522034,558.998901 
M595.340881,606.702881 
	C605.750244,603.301819 616.584290,601.225403 628.286682,596.785278 
	C614.546448,591.945557 602.304932,587.674988 590.101318,583.298401 
	C587.818054,582.479553 585.981689,582.808167 584.073730,584.207703 
	C565.175720,598.069275 546.250366,611.893616 527.332703,625.728455 
	C527.428528,625.927124 527.524292,626.125793 527.620117,626.324463 
	C549.932983,619.846802 572.245850,613.369202 595.340881,606.702881 
M705.919556,441.308441 
	C697.115723,462.164612 688.311890,483.020752 679.037415,504.991821 
	C688.058472,502.791748 695.589172,500.759399 703.214172,499.183746 
	C706.671204,498.469452 707.642090,496.914490 707.828613,493.487946 
	C708.514771,480.878906 709.681946,468.296967 710.498291,455.693817 
	C711.069153,446.879883 711.363525,438.048004 711.781372,429.224152 
	C711.529053,429.190552 711.276733,429.156982 711.024414,429.123383 
	C709.427612,432.952942 707.830872,436.782532 705.919556,441.308441 
M430.187775,260.643402 
	C439.670166,254.859695 449.152557,249.075974 458.634949,243.292267 
	C436.951416,248.862381 415.494446,254.999374 394.031403,261.115082 
	C392.656067,261.506958 391.610199,262.145020 391.209015,263.605927 
	C389.072418,271.386444 386.924927,279.163971 384.408051,288.296448 
	C400.303955,278.694214 414.933990,269.856598 430.187775,260.643402 
M661.095581,545.507385 
	C656.316833,556.454102 651.538025,567.400879 646.759277,578.347595 
	C646.910217,578.440918 647.061096,578.534241 647.212036,578.627625 
	C665.610962,554.214600 684.009888,529.801636 702.408875,505.388672 
	C702.082825,504.985962 701.756836,504.583221 701.430847,504.180481 
	C694.869995,505.825806 688.353699,507.691681 681.730408,509.027435 
	C678.189575,509.741516 676.256409,511.525940 674.868530,514.712891 
	C670.479980,524.790283 665.886536,534.778564 661.095581,545.507385 
M423.958435,602.646667 
	C420.540558,601.514343 417.122681,600.382080 413.704803,599.249817 
	C417.729034,603.149414 422.314392,606.025574 426.601685,609.292969 
	C435.171906,615.824463 444.032471,621.446838 455.361938,621.441711 
	C457.500580,621.440796 459.642517,621.990601 461.777802,622.319458 
	C471.146027,623.762512 480.512329,625.217834 489.879333,626.668701 
	C489.901917,626.515320 489.924500,626.362000 489.947083,626.208679 
	C468.192108,618.456421 446.437134,610.704163 423.958435,602.646667 
M380.371460,285.892181 
	C381.648865,281.111420 382.926239,276.330658 384.538605,270.296295 
	C368.824219,291.007629 353.860474,310.729645 338.896729,330.451691 
	C339.446991,330.979950 339.997253,331.508240 340.547546,332.036499 
	C351.390015,320.569336 362.060364,308.931091 373.181152,297.740540 
	C376.466492,294.434631 379.301300,291.293304 380.371460,285.892181 
M343.206818,525.283875 
	C340.846375,522.228394 338.485962,519.172913 336.125519,516.117432 
	C344.473938,539.922302 360.254395,561.137268 376.205353,570.719727 
	C365.271179,555.657776 354.454346,540.757385 343.206818,525.283875 
M498.085785,231.370590 
	C496.869995,231.744339 495.654175,232.118088 493.500214,232.780243 
	C512.890076,232.780243 531.250183,232.780243 549.610291,232.780243 
	C545.034363,231.860458 540.459656,231.184906 535.877747,230.562561 
	C523.489197,228.879822 511.067322,225.591766 498.085785,231.370590 
M313.884766,423.536011 
	C313.843445,422.807739 313.802094,422.079437 313.760773,421.351166 
	C313.450867,432.720490 312.618011,444.077454 313.887421,455.421844 
	C313.887421,445.047211 313.887421,434.672546 313.884766,423.536011 
z"/>
<path fill="#000000" opacity="1.000000" stroke="none" 
	d="
M346.301208,753.659790 
	C342.220612,747.417419 338.346436,741.472961 333.917480,734.677246 
	C328.947693,742.123230 324.058563,748.442261 320.294617,755.372437 
	C316.577057,762.217224 311.880920,765.273071 303.941986,764.313782 
	C297.898865,763.583496 291.696838,764.168701 285.654266,764.168701 
	C284.687317,761.037781 286.785370,759.654480 287.945435,758.025269 
	C296.351044,746.220398 304.757019,734.412720 313.394012,722.777588 
	C315.682129,719.695190 315.542511,717.576843 313.326141,714.480835 
	C306.444244,704.867859 299.943970,694.981445 293.315521,685.187622 
	C292.487244,683.963867 291.433136,682.822449 291.407867,681.201599 
	C292.099976,679.614624 293.565674,679.836304 294.841644,679.812317 
	C298.172852,679.749634 301.506287,679.749146 304.838104,679.788574 
	C320.845123,679.978088 315.801422,677.311584 325.181610,690.979370 
	C327.988129,695.068726 329.888031,699.782410 333.406036,703.332825 
	C336.007477,703.043091 336.628357,700.940979 337.732544,699.370605 
	C338.786102,697.872192 339.760895,696.317871 340.828857,694.830200 
	C344.299591,689.995483 345.801544,682.274536 351.121796,680.600708 
	C359.188049,678.062866 368.190277,679.933350 376.580322,679.873047 
	C377.654663,682.407959 376.081848,683.543518 375.199463,684.831787 
	C368.328888,694.862793 361.514709,704.936157 354.424255,714.810547 
	C352.419556,717.602234 352.425751,719.576843 354.419739,722.299255 
	C363.178833,734.257996 371.775482,746.336243 380.376801,758.409729 
	C381.381561,759.820129 383.062561,760.992493 382.629333,763.507568 
	C378.700989,764.863525 374.530609,763.919861 370.470154,764.192017 
	C368.976807,764.292114 367.441620,764.030334 365.977539,764.262329 
	C356.878174,765.704041 350.041687,762.979614 346.301208,753.659790 
z"/>
<path fill="#000000" opacity="1.000000" stroke="none" 
	d="
M479.318665,735.920349 
	C478.682892,739.033447 481.016785,742.916321 476.658691,743.958374 
	C472.486938,744.955811 469.125092,743.939148 466.507385,739.798279 
	C461.088013,731.225586 455.114502,723.003174 449.044586,714.164490 
	C447.936188,716.393372 448.378113,718.327759 448.358246,720.149841 
	C448.292969,726.148926 448.135162,732.156433 448.374878,738.146179 
	C448.541077,742.298340 447.355774,744.218567 442.808289,744.191345 
	C438.144684,744.163391 437.806915,741.592712 437.823578,738.055725 
	C437.880890,725.889954 437.731537,713.722595 437.872528,701.558289 
	C437.899689,699.215515 436.266724,695.622986 440.198578,694.917542 
	C443.900452,694.253235 447.547546,694.022339 450.207367,698.275696 
	C454.883484,705.753296 460.195679,712.833252 465.245697,720.076782 
	C466.082031,721.276367 466.939941,722.460876 468.693695,724.925110 
	C468.693695,715.730408 468.844269,707.989380 468.630127,700.258362 
	C468.523224,696.399231 469.378998,694.547729 473.798828,694.536865 
	C478.311432,694.525757 479.476410,696.184509 479.391693,700.436340 
	C479.159332,712.097900 479.316925,723.767151 479.318665,735.920349 
z"/>
<path fill="#000000" opacity="1.000000" stroke="none" 
	d="
M701.577637,736.484497 
	C701.133423,737.990295 700.713196,739.092285 700.512634,740.232971 
	C700.026978,742.994995 698.501038,744.148560 695.660950,744.103882 
	C692.802795,744.058777 691.519043,742.605835 690.791260,740.069214 
	C687.766846,729.527832 684.666809,719.008179 681.173950,707.039307 
	C677.743896,718.841553 674.588196,729.239136 671.750488,739.722778 
	C670.807190,743.207458 668.884888,744.296692 665.601685,743.929810 
	C663.935303,743.743652 662.775146,742.964722 662.310181,741.336914 
	C658.061584,726.461548 653.822144,711.583679 649.615234,696.696472 
	C649.499390,696.286743 649.777771,695.765625 649.864624,695.335022 
	C656.177307,693.992065 656.654663,694.268433 658.290100,700.230774 
	C660.970215,710.001831 663.641418,719.775391 667.345032,729.675293 
	C669.458618,722.639282 671.610352,715.614380 673.668640,708.562317 
	C674.600647,705.369080 675.428650,702.139832 676.152405,698.893188 
	C676.767151,696.135376 677.926758,694.550110 681.161072,694.593384 
	C684.297546,694.635437 685.596069,696.101257 686.343079,698.842590 
	C688.397522,706.381958 690.533997,713.899536 692.716431,721.402954 
	C693.489624,724.061218 693.947510,726.858521 695.934692,729.847412 
	C698.843445,719.414612 701.845154,709.574829 704.260193,699.593201 
	C705.454834,694.655579 708.006592,693.935120 713.201843,695.543335 
	C709.349731,709.127747 705.525696,722.613098 701.577637,736.484497 
z"/>
<path fill="#000000" opacity="1.000000" stroke="none" 
	d="
M399.210449,707.284912 
	C399.250092,714.649353 399.250092,714.650452 405.934723,714.677612 
	C408.100708,714.686401 410.267242,714.720947 412.432556,714.684937 
	C415.429993,714.635071 418.119629,714.640137 418.178314,718.907532 
	C418.235229,723.046570 415.870422,723.458252 412.686829,723.335510 
	C410.025482,723.232788 407.332153,723.566284 404.695831,723.293152 
	C400.134430,722.820435 399.097260,724.915833 399.059021,729.114197 
	C399.019501,733.454834 400.329498,735.174805 404.778015,734.840942 
	C408.918335,734.530151 413.103363,734.852661 417.268036,734.817383 
	C420.782501,734.787659 421.218872,736.980896 421.243408,739.792114 
	C421.268524,742.667664 420.193359,744.162354 417.176025,744.135010 
	C409.012848,744.060913 400.849030,744.038757 392.685486,744.031616 
	C389.773621,744.029053 388.615875,742.725830 388.597748,739.746216 
	C388.515686,726.266113 388.299133,712.786438 388.054047,699.308044 
	C387.999146,696.288696 388.894745,694.619263 392.282043,694.668274 
	C400.444336,694.786621 408.611023,694.801575 416.772797,694.668091 
	C420.408569,694.608704 421.225281,696.398926 421.271759,699.616699 
	C421.324738,703.281860 419.333679,703.580750 416.468994,703.474854 
	C412.142700,703.314880 407.806152,703.454834 403.475037,703.392761 
	C401.029846,703.357788 399.100677,703.808533 399.210449,707.284912 
z"/>
<path fill="#000000" opacity="1.000000" stroke="none" 
	d="
M590.593506,705.821899 
	C597.818542,695.432983 607.638916,691.749634 618.924316,694.937622 
	C628.333374,697.595581 635.460388,707.093750 636.069824,717.787659 
	C636.677612,728.449890 630.641541,738.979736 621.071777,742.652710 
	C612.140320,746.080811 603.139648,745.636780 595.780457,738.990784 
	C587.524353,731.534668 585.430603,721.892822 588.329041,711.209473 
	C588.802917,709.462952 589.705627,707.832703 590.593506,705.821899 
M601.616577,703.993225 
	C600.683777,704.938904 599.658630,705.810730 598.833252,706.842346 
	C593.680481,713.282776 593.789124,725.765381 599.008240,732.083069 
	C606.984436,741.738159 622.419495,738.817627 626.924744,726.800964 
	C629.752808,719.257874 627.583435,709.054138 622.208679,704.618347 
	C616.685425,700.059937 608.932312,699.632996 601.616577,703.993225 
z"/>
<path fill="#000000" opacity="1.000000" stroke="none" 
	d="
M504.339325,736.884155 
	C504.171234,739.169922 504.382538,741.132935 503.719116,742.733398 
	C503.097382,744.233337 501.200500,744.122009 499.697174,743.821594 
	C497.039124,743.290527 497.097595,741.110168 497.086029,739.113708 
	C497.020386,727.800232 496.954498,716.486389 496.978638,705.172852 
	C497.004028,693.266235 495.980774,694.802307 507.348694,694.709045 
	C513.005188,694.662659 518.662537,694.719177 524.319458,694.713074 
	C526.554688,694.710693 528.239014,695.185608 528.198547,697.994202 
	C528.158997,700.748596 526.520264,701.280518 524.269165,701.275940 
	C519.111389,701.265320 513.950745,701.391663 508.796814,701.255432 
	C505.694885,701.173523 504.243256,702.150269 504.298523,705.513000 
	C504.497375,717.611450 503.198975,715.520630 514.281128,715.720642 
	C516.277161,715.756714 518.274170,715.735352 520.270752,715.743591 
	C522.489258,715.752808 524.178528,716.277405 524.241211,719.030029 
	C524.304382,721.805176 522.706543,722.368347 520.422913,722.355530 
	C516.429993,722.333191 512.433594,722.465332 508.444794,722.338928 
	C505.481140,722.245056 504.165649,723.387207 504.295166,726.421509 
	C504.436920,729.743225 504.333435,733.075439 504.339325,736.884155 
z"/>
<path fill="#000000" opacity="1.000000" stroke="none" 
	d="
M567.770020,736.991943 
	C570.834167,737.062317 573.400146,737.051392 573.279297,740.820190 
	C573.163513,744.431580 570.528931,744.038574 568.268555,744.061157 
	C561.772461,744.125854 555.274414,744.011108 548.778748,744.094788 
	C545.300110,744.139648 543.642334,742.900574 543.680176,739.132385 
	C543.814209,725.806763 543.747070,712.478760 543.699707,699.151855 
	C543.690186,696.463379 544.260559,694.662170 547.524292,694.682739 
	C550.786438,694.703186 551.334961,696.533325 551.321594,699.204468 
	C551.267273,710.032410 551.415405,720.863281 551.201782,731.687439 
	C551.125488,735.554321 552.335938,737.190186 556.308960,736.953430 
	C559.959229,736.735901 563.635498,736.955261 567.770020,736.991943 
z"/>
</svg>